name Walk4.mot
datacolumns 19
datarows 17
range 0.98500000 1.00100000
endheader

                time	   L_ground_force_vx	   L_ground_force_vy	   L_ground_force_vz	   L_ground_force_px	   L_ground_force_py	   L_ground_force_pz	   R_ground_force_vx	   R_ground_force_vy	   R_ground_force_vz	   R_ground_force_px	   R_ground_force_py	   R_ground_force_pz	   L_ground_torque_x	   L_ground_torque_y	   L_ground_torque_z	   R_ground_torque_x	   R_ground_torque_y	   R_ground_torque_z	
          0.98500000	         -7.11614086	         69.92222434	         -5.80547741	          0.00189672	          0.00000000	         -0.00057045	         -0.00000000	          0.00000000	         -0.00000000	         -0.00000000	          0.00000000	         -0.00000000	          0.00000000	          0.12367006	          0.00000000	          0.00000000	         -0.00000000	          0.00000000	
          0.98600000	         -7.95681219	         78.22504462	         -6.55080099	         -0.02036915	          0.00000000	         -0.00402159	          0.00000000	          0.00000000	         -0.00000000	         -0.00000000	          0.00000000	         -0.00000000	          0.00000000	          0.13738500	          0.00000000	          0.00000000	         -0.00000000	          0.00000000	
          0.98700000	         -8.84042929	         86.70355247	         -7.30749360	         -0.04254932	          0.00000000	         -0.00746238	          0.00000000	         -0.00000000	         -0.00000000	         -0.00000000	          0.00000000	         -0.00000000	          0.00000000	          0.15165445	          0.00000000	          0.00000000	         -0.00000000	          0.00000000	
          0.98800000	         -9.76737398	         95.34380405	         -8.07397841	         -0.06456838	          0.00000000	         -0.01088155	          0.00000000	         -0.00000000	         -0.00000000	         -0.00000000	          0.00000000	         -0.00000000	          0.00000000	          0.16647340	          0.00000000	          0.00000000	          0.00000000	          0.00000000	
          0.98900000	        -10.73789095	        104.13065693	         -8.84859401	         -0.08635577	          0.00000000	         -0.01426843	          0.00000000	         -0.00000000	         -0.00000000	         -0.00000000	          0.00000000	         -0.00000000	          0.00000000	          0.18183460	          0.00000000	          0.00000000	          0.00000000	          0.00000000	
          0.99000000	        -11.75207461	        113.04778894	         -9.62960525	         -0.10784740	          0.00000000	         -0.01761323	          0.00000000	         -0.00000000	         -0.00000000	         -0.00000000	          0.00000000	         -0.00000000	          0.00000000	          0.19772849	          0.00000000	          0.00000000	          0.00000000	          0.00000000	
          0.99100000	        -12.80985582	        122.07776451	        -10.41521422	         -0.12898585	          0.00000000	         -0.02090708	          0.00000000	         -0.00000000	         -0.00000000	         -0.00000000	          0.00000000	         -0.00000000	          0.00000000	          0.21414306	          0.00000000	          0.00000000	          0.00000000	          0.00000000	
          0.99200000	        -13.91098830	        131.20216206	        -11.20357077	         -0.14971995	          0.00000000	         -0.02414201	          0.00000000	         -0.00000000	         -0.00000000	         -0.00000000	          0.00000000	         -0.00000000	          0.00000000	          0.23106370	          0.00000000	          0.00000000	          0.00000000	          0.00000000	
          0.99300000	        -15.05503458	        140.40177313	        -11.99278268	         -0.17000445	          0.00000000	         -0.02731093	          0.00000000	         -0.00000000	         -0.00000000	         -0.00000000	          0.00000000	         -0.00000000	          0.00000000	          0.24847304	          0.00000000	          0.00000000	          0.00000000	          0.00000000	
          0.99400000	        -16.24135104	        149.65687358	        -12.78092490	         -0.18979965	          0.00000000	         -0.03040760	          0.00000000	         -0.00000000	         -0.00000000	         -0.00000000	          0.00000000	         -0.00000000	          0.00000000	          0.26635071	          0.00000000	          0.00000000	          0.00000000	          0.00000000	
          0.99500000	        -17.46907223	        158.94755379	        -13.56604778	         -0.20907112	          0.00000000	         -0.03342658	          0.00000000	         -0.00000001	         -0.00000000	         -0.00000000	          0.00000000	         -0.00000000	          0.00000000	          0.28467317	          0.00000000	          0.00000000	          0.00000000	          0.00000000	
          0.99600000	        -18.73709471	        168.25408060	        -14.34618435	         -0.22778932	          0.00000000	         -0.03636320	          0.00000000	         -0.00000001	         -0.00000000	         -0.00000000	          0.00000000	         -0.00000000	          0.00000000	          0.30341347	          0.00000000	          0.00000000	          0.00000000	          0.00000000	
          0.99700000	        -20.04406222	        177.55725326	        -15.11935692	         -0.24592931	          0.00000000	         -0.03921354	          0.00000000	         -0.00000001	         -0.00000000	         -0.00000000	          0.00000000	         -0.00000000	          0.00000000	          0.32254105	          0.00000000	          0.00000000	          0.00000000	          0.00000000	
          0.99800000	        -21.38835405	        186.83871374	        -15.88358351	         -0.26347046	          0.00000000	         -0.04197432	          0.00000000	         -0.00000001	         -0.00000000	         -0.00000000	          0.00000000	         -0.00000000	          0.00000000	          0.34202161	          0.00000000	          0.00000000	          0.00000000	          0.00000000	
          0.99900000	        -22.76807891	        196.08118012	        -16.63688466	         -0.28039618	          0.00000000	         -0.04464290	          0.00000000	         -0.00000001	         -0.00000000	         -0.00000000	          0.00000000	         -0.00000000	          0.00000000	          0.36181687	          0.00000000	          0.00000000	          0.00000000	          0.00000000	
          1.00000000	        -24.18107599	        205.26858684	        -17.37729121	         -0.29669357	          0.00000000	         -0.04721726	          0.00000000	         -0.00000001	         -0.00000000	         -0.00000000	          0.00000000	         -0.00000000	          0.00000000	          0.38188451	          0.00000000	          0.00000000	          0.00000000	          0.00000000	
          1.00100000	        -25.62492391	        214.38613357	        -18.10285318	         -0.31235325	          0.00000000	         -0.04969587	          0.00000000	         -0.00000001	         -0.00000000	         -0.00000000	          0.00000000	         -0.00000000	          0.00000000	          0.40217820	          0.00000000	          0.00000000	          0.00000000	          0.00000000	
